<mxfile host="app.diagrams.net" agent="Mozilla/5.0 (Macintosh; Intel Mac OS X 10_15_7) AppleWebKit/537.36 (KHTML, like Gecko) Chrome/136.0.0.0 Safari/537.36" version="27.0.9">
  <diagram name="AWS S3 Static Website Hosting" id="4ZTydE9akBAXx5Hrn9Yd">
    <mxGraphModel dx="946" dy="610" grid="1" gridSize="10" guides="1" tooltips="1" connect="1" arrows="1" fold="1" page="1" pageScale="1" pageWidth="1169" pageHeight="827" math="0" shadow="0">
      <root>
        <mxCell id="0" />
        <mxCell id="1" parent="0" />
        <mxCell id="y4yy4OBTVfysRu9EUPGd-1" value="Users" style="shape=ellipse;fillColor=#FFB6C1;strokeColor=#000000;fontSize=14;fontColor=#000000;" vertex="1" parent="1">
          <mxGeometry x="120" y="150" width="100" height="60" as="geometry" />
        </mxCell>
        <mxCell id="y4yy4OBTVfysRu9EUPGd-2" value="S3 Bucket" style="shape=cylinder;fillColor=#FFA500;strokeColor=#000000;fontSize=14;fontColor=#000000;" vertex="1" parent="1">
          <mxGeometry x="340" y="140" width="120" height="80" as="geometry" />
        </mxCell>
        <mxCell id="y4yy4OBTVfysRu9EUPGd-3" value="CloudFront" style="shape=hexagon;fillColor=#40E0D0;strokeColor=#000000;fontSize=14;fontColor=#000000;" vertex="1" parent="1">
          <mxGeometry x="585" y="40" width="120" height="80" as="geometry" />
        </mxCell>
        <mxCell id="y4yy4OBTVfysRu9EUPGd-4" value="Users" style="shape=ellipse;fillColor=#87CEFA;strokeColor=#000000;fontSize=14;fontColor=#000000;" vertex="1" parent="1">
          <mxGeometry x="590" y="260" width="100" height="60" as="geometry" />
        </mxCell>
        <mxCell id="y4yy4OBTVfysRu9EUPGd-5" style="endArrow=block;strokeColor=#000000;" edge="1" parent="1" source="y4yy4OBTVfysRu9EUPGd-1" target="y4yy4OBTVfysRu9EUPGd-2">
          <mxGeometry relative="1" as="geometry" />
        </mxCell>
        <mxCell id="y4yy4OBTVfysRu9EUPGd-6" style="endArrow=block;strokeColor=#000000;" edge="1" parent="1" source="y4yy4OBTVfysRu9EUPGd-2" target="y4yy4OBTVfysRu9EUPGd-3">
          <mxGeometry relative="1" as="geometry" />
        </mxCell>
        <mxCell id="y4yy4OBTVfysRu9EUPGd-7" style="endArrow=block;strokeColor=#000000;" edge="1" parent="1" source="y4yy4OBTVfysRu9EUPGd-2" target="y4yy4OBTVfysRu9EUPGd-4">
          <mxGeometry relative="1" as="geometry" />
        </mxCell>
        <mxCell id="y4yy4OBTVfysRu9EUPGd-8" style="endArrow=block;strokeColor=#000000;" edge="1" parent="1" source="y4yy4OBTVfysRu9EUPGd-3" target="y4yy4OBTVfysRu9EUPGd-4">
          <mxGeometry relative="1" as="geometry" />
        </mxCell>
      </root>
    </mxGraphModel>
  </diagram>
</mxfile>
